ISO-10303-21;
HEADER;
FILE_DESCRIPTION(('KiCad electronic assembly'),'2;1');
FILE_NAME('pcb-substrate.step','2026-09-07T15:37:01',('Pcbnew'),('Kicad'
    ),'Open CASCADE STEP processor 7.9','KiCad to STEP converter',
  'Unknown');
FILE_SCHEMA(('AUTOMOTIVE_DESIGN { 1 0 10303 214 1 1 1 1 }'));
ENDSEC;
DATA;
#1 = APPLICATION_PROTOCOL_DEFINITION('international standard',
  'automotive_design',2000,#2);
#2 = APPLICATION_CONTEXT(
  'core data for automotive mechanical design processes');
#3 = SHAPE_DEFINITION_REPRESENTATION(#4,#10);
#4 = PRODUCT_DEFINITION_SHAPE('','',#5);
#5 = PRODUCT_DEFINITION('design','',#6,#9);
#6 = PRODUCT_DEFINITION_FORMATION('','',#7);
#7 = PRODUCT('pcb-substrate 1','pcb-substrate 1','',(#8));
#8 = PRODUCT_CONTEXT('',#2,'mechanical');
#9 = PRODUCT_DEFINITION_CONTEXT('part definition',#2,'design');
#10 = SHAPE_REPRESENTATION('',(#11,#15),#19);
#11 = AXIS2_PLACEMENT_3D('',#12,#13,#14);
#12 = CARTESIAN_POINT('',(0.,0.,0.));
#13 = DIRECTION('',(0.,0.,1.));
#14 = DIRECTION('',(1.,0.,-0.));
#15 = AXIS2_PLACEMENT_3D('',#16,#17,#18);
#16 = CARTESIAN_POINT('',(0.,0.,0.));
#17 = DIRECTION('',(0.,0.,1.));
#18 = DIRECTION('',(1.,0.,-0.));
#19 = ( GEOMETRIC_REPRESENTATION_CONTEXT(3) 
GLOBAL_UNCERTAINTY_ASSIGNED_CONTEXT((#23)) GLOBAL_UNIT_ASSIGNED_CONTEXT(
(#20,#21,#22)) REPRESENTATION_CONTEXT('Context #1',
  '3D Context with UNIT and UNCERTAINTY') );
#20 = ( LENGTH_UNIT() NAMED_UNIT(*) SI_UNIT(.MILLI.,.METRE.) );
#21 = ( NAMED_UNIT(*) PLANE_ANGLE_UNIT() SI_UNIT($,.RADIAN.) );
#22 = ( NAMED_UNIT(*) SI_UNIT($,.STERADIAN.) SOLID_ANGLE_UNIT() );
#23 = UNCERTAINTY_MEASURE_WITH_UNIT(LENGTH_MEASURE(1.E-07),#20,
  'distance_accuracy_value','confusion accuracy');
#24 = PRODUCT_RELATED_PRODUCT_CATEGORY('part',$,(#7));
#25 = SHAPE_DEFINITION_REPRESENTATION(#26,#32);
#26 = PRODUCT_DEFINITION_SHAPE('','',#27);
#27 = PRODUCT_DEFINITION('design','',#28,#31);
#28 = PRODUCT_DEFINITION_FORMATION('','',#29);
#29 = PRODUCT('handbell_PCB','handbell_PCB','',(#30));
#30 = PRODUCT_CONTEXT('',#2,'mechanical');
#31 = PRODUCT_DEFINITION_CONTEXT('part definition',#2,'design');
#32 = ADVANCED_BREP_SHAPE_REPRESENTATION('',(#11,#33),#320);
#33 = MANIFOLD_SOLID_BREP('',#34);
#34 = CLOSED_SHELL('',(#35,#68,#143,#218,#235,#252,#269,#286,#303));
#35 = ADVANCED_FACE('',(#36),#63,.T.);
#36 = FACE_BOUND('',#37,.F.);
#37 = EDGE_LOOP('',(#38,#48,#55,#56));
#38 = ORIENTED_EDGE('',*,*,#39,.T.);
#39 = EDGE_CURVE('',#40,#42,#44,.T.);
#40 = VERTEX_POINT('',#41);
#41 = CARTESIAN_POINT('',(21.5,0.,0.));
#42 = VERTEX_POINT('',#43);
#43 = CARTESIAN_POINT('',(21.5,0.,1.51));
#44 = LINE('',#45,#46);
#45 = CARTESIAN_POINT('',(21.5,0.,0.));
#46 = VECTOR('',#47,1.);
#47 = DIRECTION('',(0.,0.,1.));
#48 = ORIENTED_EDGE('',*,*,#49,.T.);
#49 = EDGE_CURVE('',#42,#42,#50,.T.);
#50 = CIRCLE('',#51,21.5);
#51 = AXIS2_PLACEMENT_3D('',#52,#53,#54);
#52 = CARTESIAN_POINT('',(0.,0.,1.51));
#53 = DIRECTION('',(0.,0.,1.));
#54 = DIRECTION('',(1.,0.,-0.));
#55 = ORIENTED_EDGE('',*,*,#39,.F.);
#56 = ORIENTED_EDGE('',*,*,#57,.F.);
#57 = EDGE_CURVE('',#40,#40,#58,.T.);
#58 = CIRCLE('',#59,21.5);
#59 = AXIS2_PLACEMENT_3D('',#60,#61,#62);
#60 = CARTESIAN_POINT('',(0.,-0.,0.));
#61 = DIRECTION('',(0.,0.,1.));
#62 = DIRECTION('',(1.,0.,-0.));
#63 = CYLINDRICAL_SURFACE('',#64,21.5);
#64 = AXIS2_PLACEMENT_3D('',#65,#66,#67);
#65 = CARTESIAN_POINT('',(0.,-0.,0.));
#66 = DIRECTION('',(-0.,-0.,-1.));
#67 = DIRECTION('',(1.,0.,-0.));
#68 = ADVANCED_FACE('',(#69,#72,#83,#94,#105,#116,#127),#138,.F.);
#69 = FACE_BOUND('',#70,.F.);
#70 = EDGE_LOOP('',(#71));
#71 = ORIENTED_EDGE('',*,*,#57,.T.);
#72 = FACE_BOUND('',#73,.F.);
#73 = EDGE_LOOP('',(#74));
#74 = ORIENTED_EDGE('',*,*,#75,.T.);
#75 = EDGE_CURVE('',#76,#76,#78,.T.);
#76 = VERTEX_POINT('',#77);
#77 = CARTESIAN_POINT('',(-4.32,14.885,0.));
#78 = CIRCLE('',#79,0.3);
#79 = AXIS2_PLACEMENT_3D('',#80,#81,#82);
#80 = CARTESIAN_POINT('',(-4.32,15.185,0.));
#81 = DIRECTION('',(-0.,0.,-1.));
#82 = DIRECTION('',(-0.,-1.,0.));
#83 = FACE_BOUND('',#84,.F.);
#84 = EDGE_LOOP('',(#85));
#85 = ORIENTED_EDGE('',*,*,#86,.T.);
#86 = EDGE_CURVE('',#87,#87,#89,.T.);
#87 = VERTEX_POINT('',#88);
#88 = CARTESIAN_POINT('',(-2.89,15.36,0.));
#89 = CIRCLE('',#90,0.325);
#90 = AXIS2_PLACEMENT_3D('',#91,#92,#93);
#91 = CARTESIAN_POINT('',(-2.89,15.685,0.));
#92 = DIRECTION('',(-0.,0.,-1.));
#93 = DIRECTION('',(-1.366428338E-15,-1.,0.));
#94 = FACE_BOUND('',#95,.F.);
#95 = EDGE_LOOP('',(#96));
#96 = ORIENTED_EDGE('',*,*,#97,.T.);
#97 = EDGE_CURVE('',#98,#98,#100,.T.);
#98 = VERTEX_POINT('',#99);
#99 = CARTESIAN_POINT('',(4.32,14.885,0.));
#100 = CIRCLE('',#101,0.3);
#101 = AXIS2_PLACEMENT_3D('',#102,#103,#104);
#102 = CARTESIAN_POINT('',(4.32,15.185,0.));
#103 = DIRECTION('',(-0.,0.,-1.));
#104 = DIRECTION('',(-0.,-1.,0.));
#105 = FACE_BOUND('',#106,.F.);
#106 = EDGE_LOOP('',(#107));
#107 = ORIENTED_EDGE('',*,*,#108,.T.);
#108 = EDGE_CURVE('',#109,#109,#111,.T.);
#109 = VERTEX_POINT('',#110);
#110 = CARTESIAN_POINT('',(2.89,15.36,0.));
#111 = CIRCLE('',#112,0.325);
#112 = AXIS2_PLACEMENT_3D('',#113,#114,#115);
#113 = CARTESIAN_POINT('',(2.89,15.685,0.));
#114 = DIRECTION('',(-0.,0.,-1.));
#115 = DIRECTION('',(1.366428338E-15,-1.,-0.));
#116 = FACE_BOUND('',#117,.F.);
#117 = EDGE_LOOP('',(#118));
#118 = ORIENTED_EDGE('',*,*,#119,.T.);
#119 = EDGE_CURVE('',#120,#120,#122,.T.);
#120 = VERTEX_POINT('',#121);
#121 = CARTESIAN_POINT('',(-4.32,19.065,0.));
#122 = CIRCLE('',#123,0.3);
#123 = AXIS2_PLACEMENT_3D('',#124,#125,#126);
#124 = CARTESIAN_POINT('',(-4.32,19.365,0.));
#125 = DIRECTION('',(-0.,0.,-1.));
#126 = DIRECTION('',(-0.,-1.,0.));
#127 = FACE_BOUND('',#128,.F.);
#128 = EDGE_LOOP('',(#129));
#129 = ORIENTED_EDGE('',*,*,#130,.T.);
#130 = EDGE_CURVE('',#131,#131,#133,.T.);
#131 = VERTEX_POINT('',#132);
#132 = CARTESIAN_POINT('',(4.32,19.065,0.));
#133 = CIRCLE('',#134,0.3);
#134 = AXIS2_PLACEMENT_3D('',#135,#136,#137);
#135 = CARTESIAN_POINT('',(4.32,19.365,0.));
#136 = DIRECTION('',(-0.,0.,-1.));
#137 = DIRECTION('',(-0.,-1.,0.));
#138 = PLANE('',#139);
#139 = AXIS2_PLACEMENT_3D('',#140,#141,#142);
#140 = CARTESIAN_POINT('',(0.,0.,0.));
#141 = DIRECTION('',(0.,0.,1.));
#142 = DIRECTION('',(1.,0.,-0.));
#143 = ADVANCED_FACE('',(#144,#147,#158,#169,#180,#191,#202),#213,.T.);
#144 = FACE_BOUND('',#145,.T.);
#145 = EDGE_LOOP('',(#146));
#146 = ORIENTED_EDGE('',*,*,#49,.T.);
#147 = FACE_BOUND('',#148,.T.);
#148 = EDGE_LOOP('',(#149));
#149 = ORIENTED_EDGE('',*,*,#150,.T.);
#150 = EDGE_CURVE('',#151,#151,#153,.T.);
#151 = VERTEX_POINT('',#152);
#152 = CARTESIAN_POINT('',(-4.32,14.885,1.51));
#153 = CIRCLE('',#154,0.3);
#154 = AXIS2_PLACEMENT_3D('',#155,#156,#157);
#155 = CARTESIAN_POINT('',(-4.32,15.185,1.51));
#156 = DIRECTION('',(-0.,0.,-1.));
#157 = DIRECTION('',(-0.,-1.,0.));
#158 = FACE_BOUND('',#159,.T.);
#159 = EDGE_LOOP('',(#160));
#160 = ORIENTED_EDGE('',*,*,#161,.T.);
#161 = EDGE_CURVE('',#162,#162,#164,.T.);
#162 = VERTEX_POINT('',#163);
#163 = CARTESIAN_POINT('',(-2.89,15.36,1.51));
#164 = CIRCLE('',#165,0.325);
#165 = AXIS2_PLACEMENT_3D('',#166,#167,#168);
#166 = CARTESIAN_POINT('',(-2.89,15.685,1.51));
#167 = DIRECTION('',(-0.,0.,-1.));
#168 = DIRECTION('',(-1.366428338E-15,-1.,0.));
#169 = FACE_BOUND('',#170,.T.);
#170 = EDGE_LOOP('',(#171));
#171 = ORIENTED_EDGE('',*,*,#172,.T.);
#172 = EDGE_CURVE('',#173,#173,#175,.T.);
#173 = VERTEX_POINT('',#174);
#174 = CARTESIAN_POINT('',(4.32,14.885,1.51));
#175 = CIRCLE('',#176,0.3);
#176 = AXIS2_PLACEMENT_3D('',#177,#178,#179);
#177 = CARTESIAN_POINT('',(4.32,15.185,1.51));
#178 = DIRECTION('',(-0.,0.,-1.));
#179 = DIRECTION('',(-0.,-1.,0.));
#180 = FACE_BOUND('',#181,.T.);
#181 = EDGE_LOOP('',(#182));
#182 = ORIENTED_EDGE('',*,*,#183,.T.);
#183 = EDGE_CURVE('',#184,#184,#186,.T.);
#184 = VERTEX_POINT('',#185);
#185 = CARTESIAN_POINT('',(2.89,15.36,1.51));
#186 = CIRCLE('',#187,0.325);
#187 = AXIS2_PLACEMENT_3D('',#188,#189,#190);
#188 = CARTESIAN_POINT('',(2.89,15.685,1.51));
#189 = DIRECTION('',(-0.,0.,-1.));
#190 = DIRECTION('',(1.366428338E-15,-1.,-0.));
#191 = FACE_BOUND('',#192,.T.);
#192 = EDGE_LOOP('',(#193));
#193 = ORIENTED_EDGE('',*,*,#194,.T.);
#194 = EDGE_CURVE('',#195,#195,#197,.T.);
#195 = VERTEX_POINT('',#196);
#196 = CARTESIAN_POINT('',(-4.32,19.065,1.51));
#197 = CIRCLE('',#198,0.3);
#198 = AXIS2_PLACEMENT_3D('',#199,#200,#201);
#199 = CARTESIAN_POINT('',(-4.32,19.365,1.51));
#200 = DIRECTION('',(-0.,0.,-1.));
#201 = DIRECTION('',(-0.,-1.,0.));
#202 = FACE_BOUND('',#203,.T.);
#203 = EDGE_LOOP('',(#204));
#204 = ORIENTED_EDGE('',*,*,#205,.T.);
#205 = EDGE_CURVE('',#206,#206,#208,.T.);
#206 = VERTEX_POINT('',#207);
#207 = CARTESIAN_POINT('',(4.32,19.065,1.51));
#208 = CIRCLE('',#209,0.3);
#209 = AXIS2_PLACEMENT_3D('',#210,#211,#212);
#210 = CARTESIAN_POINT('',(4.32,19.365,1.51));
#211 = DIRECTION('',(-0.,0.,-1.));
#212 = DIRECTION('',(-0.,-1.,0.));
#213 = PLANE('',#214);
#214 = AXIS2_PLACEMENT_3D('',#215,#216,#217);
#215 = CARTESIAN_POINT('',(0.,0.,1.51));
#216 = DIRECTION('',(0.,0.,1.));
#217 = DIRECTION('',(1.,0.,-0.));
#218 = ADVANCED_FACE('',(#219),#230,.F.);
#219 = FACE_BOUND('',#220,.T.);
#220 = EDGE_LOOP('',(#221,#222,#228,#229));
#221 = ORIENTED_EDGE('',*,*,#75,.T.);
#222 = ORIENTED_EDGE('',*,*,#223,.T.);
#223 = EDGE_CURVE('',#76,#151,#224,.T.);
#224 = LINE('',#225,#226);
#225 = CARTESIAN_POINT('',(-4.32,14.885,-4.6E-02));
#226 = VECTOR('',#227,1.);
#227 = DIRECTION('',(0.,0.,1.));
#228 = ORIENTED_EDGE('',*,*,#150,.F.);
#229 = ORIENTED_EDGE('',*,*,#223,.F.);
#230 = CYLINDRICAL_SURFACE('',#231,0.3);
#231 = AXIS2_PLACEMENT_3D('',#232,#233,#234);
#232 = CARTESIAN_POINT('',(-4.32,15.185,-4.6E-02));
#233 = DIRECTION('',(-0.,-0.,-1.));
#234 = DIRECTION('',(-0.,-1.,0.));
#235 = ADVANCED_FACE('',(#236),#247,.F.);
#236 = FACE_BOUND('',#237,.T.);
#237 = EDGE_LOOP('',(#238,#239,#245,#246));
#238 = ORIENTED_EDGE('',*,*,#86,.T.);
#239 = ORIENTED_EDGE('',*,*,#240,.T.);
#240 = EDGE_CURVE('',#87,#162,#241,.T.);
#241 = LINE('',#242,#243);
#242 = CARTESIAN_POINT('',(-2.89,15.36,-4.6E-02));
#243 = VECTOR('',#244,1.);
#244 = DIRECTION('',(0.,0.,1.));
#245 = ORIENTED_EDGE('',*,*,#161,.F.);
#246 = ORIENTED_EDGE('',*,*,#240,.F.);
#247 = CYLINDRICAL_SURFACE('',#248,0.325);
#248 = AXIS2_PLACEMENT_3D('',#249,#250,#251);
#249 = CARTESIAN_POINT('',(-2.89,15.685,-4.6E-02));
#250 = DIRECTION('',(-0.,-0.,-1.));
#251 = DIRECTION('',(-1.366428338E-15,-1.,0.));
#252 = ADVANCED_FACE('',(#253),#264,.F.);
#253 = FACE_BOUND('',#254,.T.);
#254 = EDGE_LOOP('',(#255,#256,#262,#263));
#255 = ORIENTED_EDGE('',*,*,#97,.T.);
#256 = ORIENTED_EDGE('',*,*,#257,.T.);
#257 = EDGE_CURVE('',#98,#173,#258,.T.);
#258 = LINE('',#259,#260);
#259 = CARTESIAN_POINT('',(4.32,14.885,-4.6E-02));
#260 = VECTOR('',#261,1.);
#261 = DIRECTION('',(0.,0.,1.));
#262 = ORIENTED_EDGE('',*,*,#172,.F.);
#263 = ORIENTED_EDGE('',*,*,#257,.F.);
#264 = CYLINDRICAL_SURFACE('',#265,0.3);
#265 = AXIS2_PLACEMENT_3D('',#266,#267,#268);
#266 = CARTESIAN_POINT('',(4.32,15.185,-4.6E-02));
#267 = DIRECTION('',(-0.,-0.,-1.));
#268 = DIRECTION('',(-0.,-1.,0.));
#269 = ADVANCED_FACE('',(#270),#281,.F.);
#270 = FACE_BOUND('',#271,.T.);
#271 = EDGE_LOOP('',(#272,#273,#279,#280));
#272 = ORIENTED_EDGE('',*,*,#108,.T.);
#273 = ORIENTED_EDGE('',*,*,#274,.T.);
#274 = EDGE_CURVE('',#109,#184,#275,.T.);
#275 = LINE('',#276,#277);
#276 = CARTESIAN_POINT('',(2.89,15.36,-4.6E-02));
#277 = VECTOR('',#278,1.);
#278 = DIRECTION('',(0.,0.,1.));
#279 = ORIENTED_EDGE('',*,*,#183,.F.);
#280 = ORIENTED_EDGE('',*,*,#274,.F.);
#281 = CYLINDRICAL_SURFACE('',#282,0.325);
#282 = AXIS2_PLACEMENT_3D('',#283,#284,#285);
#283 = CARTESIAN_POINT('',(2.89,15.685,-4.6E-02));
#284 = DIRECTION('',(-0.,0.,-1.));
#285 = DIRECTION('',(1.366428338E-15,-1.,-0.));
#286 = ADVANCED_FACE('',(#287),#298,.F.);
#287 = FACE_BOUND('',#288,.T.);
#288 = EDGE_LOOP('',(#289,#290,#296,#297));
#289 = ORIENTED_EDGE('',*,*,#119,.T.);
#290 = ORIENTED_EDGE('',*,*,#291,.T.);
#291 = EDGE_CURVE('',#120,#195,#292,.T.);
#292 = LINE('',#293,#294);
#293 = CARTESIAN_POINT('',(-4.32,19.065,-4.6E-02));
#294 = VECTOR('',#295,1.);
#295 = DIRECTION('',(0.,0.,1.));
#296 = ORIENTED_EDGE('',*,*,#194,.F.);
#297 = ORIENTED_EDGE('',*,*,#291,.F.);
#298 = CYLINDRICAL_SURFACE('',#299,0.3);
#299 = AXIS2_PLACEMENT_3D('',#300,#301,#302);
#300 = CARTESIAN_POINT('',(-4.32,19.365,-4.6E-02));
#301 = DIRECTION('',(-0.,-0.,-1.));
#302 = DIRECTION('',(-0.,-1.,0.));
#303 = ADVANCED_FACE('',(#304),#315,.F.);
#304 = FACE_BOUND('',#305,.T.);
#305 = EDGE_LOOP('',(#306,#307,#313,#314));
#306 = ORIENTED_EDGE('',*,*,#130,.T.);
#307 = ORIENTED_EDGE('',*,*,#308,.T.);
#308 = EDGE_CURVE('',#131,#206,#309,.T.);
#309 = LINE('',#310,#311);
#310 = CARTESIAN_POINT('',(4.32,19.065,-4.6E-02));
#311 = VECTOR('',#312,1.);
#312 = DIRECTION('',(0.,0.,1.));
#313 = ORIENTED_EDGE('',*,*,#205,.F.);
#314 = ORIENTED_EDGE('',*,*,#308,.F.);
#315 = CYLINDRICAL_SURFACE('',#316,0.3);
#316 = AXIS2_PLACEMENT_3D('',#317,#318,#319);
#317 = CARTESIAN_POINT('',(4.32,19.365,-4.6E-02));
#318 = DIRECTION('',(-0.,-0.,-1.));
#319 = DIRECTION('',(-0.,-1.,0.));
#320 = ( GEOMETRIC_REPRESENTATION_CONTEXT(3) 
GLOBAL_UNCERTAINTY_ASSIGNED_CONTEXT((#324)) GLOBAL_UNIT_ASSIGNED_CONTEXT
((#321,#322,#323)) REPRESENTATION_CONTEXT('Context #1',
  '3D Context with UNIT and UNCERTAINTY') );
#321 = ( LENGTH_UNIT() NAMED_UNIT(*) SI_UNIT(.MILLI.,.METRE.) );
#322 = ( NAMED_UNIT(*) PLANE_ANGLE_UNIT() SI_UNIT($,.RADIAN.) );
#323 = ( NAMED_UNIT(*) SI_UNIT($,.STERADIAN.) SOLID_ANGLE_UNIT() );
#324 = UNCERTAINTY_MEASURE_WITH_UNIT(LENGTH_MEASURE(1.E-07),#321,
  'distance_accuracy_value','confusion accuracy');
#325 = CONTEXT_DEPENDENT_SHAPE_REPRESENTATION(#326,#328);
#326 = ( REPRESENTATION_RELATIONSHIP('','',#32,#10) 
REPRESENTATION_RELATIONSHIP_WITH_TRANSFORMATION(#327) 
SHAPE_REPRESENTATION_RELATIONSHIP() );
#327 = ITEM_DEFINED_TRANSFORMATION('','',#11,#15);
#328 = PRODUCT_DEFINITION_SHAPE('Placement','Placement of an item',#329
  );
#329 = NEXT_ASSEMBLY_USAGE_OCCURRENCE('1','=>[0:1:1:2]','',#5,#27,$);
#330 = PRODUCT_RELATED_PRODUCT_CATEGORY('part',$,(#29));
#331 = MECHANICAL_DESIGN_GEOMETRIC_PRESENTATION_REPRESENTATION('',(#332)
  ,#320);
#332 = STYLED_ITEM('color',(#333),#33);
#333 = PRESENTATION_STYLE_ASSIGNMENT((#334));
#334 = SURFACE_STYLE_USAGE(.BOTH.,#335);
#335 = SURFACE_SIDE_STYLE('',(#336));
#336 = SURFACE_STYLE_FILL_AREA(#337);
#337 = FILL_AREA_STYLE('',(#338));
#338 = FILL_AREA_STYLE_COLOUR('',#339);
#339 = COLOUR_RGB('',0.313304153717,0.484529207832,0.410020903123);
ENDSEC;
END-ISO-10303-21;
