ISO-10303-21;
HEADER;
FILE_DESCRIPTION(('FreeCAD Model'),'2;1');
FILE_NAME('Open CASCADE Shape Model','2026-09-14T01:09:55',('FreeCAD'),(
    'FreeCAD'),'Open CASCADE STEP processor 7.8','FreeCAD','Unknown');
FILE_SCHEMA(('AUTOMOTIVE_DESIGN { 1 0 10303 214 1 1 1 1 }'));
ENDSEC;
DATA;
#1 = APPLICATION_PROTOCOL_DEFINITION('international standard',
  'automotive_design',2000,#2);
#2 = APPLICATION_CONTEXT(
  'core data for automotive mechanical design processes');
#3 = SHAPE_DEFINITION_REPRESENTATION(#4,#10);
#4 = PRODUCT_DEFINITION_SHAPE('','',#5);
#5 = PRODUCT_DEFINITION('design','',#6,#9);
#6 = PRODUCT_DEFINITION_FORMATION('','',#7);
#7 = PRODUCT('Open CASCADE STEP translator 7.8 6',
  'Open CASCADE STEP translator 7.8 6','',(#8));
#8 = PRODUCT_CONTEXT('',#2,'mechanical');
#9 = PRODUCT_DEFINITION_CONTEXT('part definition',#2,'design');
#10 = ADVANCED_BREP_SHAPE_REPRESENTATION('',(#11,#15),#667);
#11 = AXIS2_PLACEMENT_3D('',#12,#13,#14);
#12 = CARTESIAN_POINT('',(0.,0.,0.));
#13 = DIRECTION('',(0.,0.,1.));
#14 = DIRECTION('',(1.,0.,-0.));
#15 = MANIFOLD_SOLID_BREP('',#16);
#16 = CLOSED_SHELL('',(#17,#68,#162,#193,#217,#241,#258,#288,#319,#350,
    #373,#396,#427,#458,#492,#523,#554,#576,#596,#632,#658));
#17 = ADVANCED_FACE('',(#18,#29),#63,.F.);
#18 = FACE_BOUND('',#19,.T.);
#19 = EDGE_LOOP('',(#20));
#20 = ORIENTED_EDGE('',*,*,#21,.F.);
#21 = EDGE_CURVE('',#22,#22,#24,.T.);
#22 = VERTEX_POINT('',#23);
#23 = CARTESIAN_POINT('',(10.,0.,55.8));
#24 = CIRCLE('',#25,10.);
#25 = AXIS2_PLACEMENT_3D('',#26,#27,#28);
#26 = CARTESIAN_POINT('',(0.,0.,55.8));
#27 = DIRECTION('',(0.,0.,1.));
#28 = DIRECTION('',(1.,0.,0.));
#29 = FACE_BOUND('',#30,.T.);
#30 = EDGE_LOOP('',(#31,#41,#49,#57));
#31 = ORIENTED_EDGE('',*,*,#32,.F.);
#32 = EDGE_CURVE('',#33,#35,#37,.T.);
#33 = VERTEX_POINT('',#34);
#34 = CARTESIAN_POINT('',(-6.,-5.,55.8));
#35 = VERTEX_POINT('',#36);
#36 = CARTESIAN_POINT('',(-6.,5.,55.8));
#37 = LINE('',#38,#39);
#38 = CARTESIAN_POINT('',(-6.,-5.,55.8));
#39 = VECTOR('',#40,1.);
#40 = DIRECTION('',(0.,1.,0.));
#41 = ORIENTED_EDGE('',*,*,#42,.T.);
#42 = EDGE_CURVE('',#33,#43,#45,.T.);
#43 = VERTEX_POINT('',#44);
#44 = CARTESIAN_POINT('',(6.,-5.,55.8));
#45 = LINE('',#46,#47);
#46 = CARTESIAN_POINT('',(-6.,-5.,55.8));
#47 = VECTOR('',#48,1.);
#48 = DIRECTION('',(1.,0.,0.));
#49 = ORIENTED_EDGE('',*,*,#50,.T.);
#50 = EDGE_CURVE('',#43,#51,#53,.T.);
#51 = VERTEX_POINT('',#52);
#52 = CARTESIAN_POINT('',(6.,5.,55.8));
#53 = LINE('',#54,#55);
#54 = CARTESIAN_POINT('',(6.,-5.,55.8));
#55 = VECTOR('',#56,1.);
#56 = DIRECTION('',(0.,1.,0.));
#57 = ORIENTED_EDGE('',*,*,#58,.F.);
#58 = EDGE_CURVE('',#35,#51,#59,.T.);
#59 = LINE('',#60,#61);
#60 = CARTESIAN_POINT('',(-6.,5.,55.8));
#61 = VECTOR('',#62,1.);
#62 = DIRECTION('',(1.,0.,0.));
#63 = PLANE('',#64);
#64 = AXIS2_PLACEMENT_3D('',#65,#66,#67);
#65 = CARTESIAN_POINT('',(0.,0.,55.8));
#66 = DIRECTION('',(0.,0.,1.));
#67 = DIRECTION('',(1.,0.,0.));
#68 = ADVANCED_FACE('',(#69,#89),#153,.T.);
#69 = FACE_BOUND('',#70,.T.);
#70 = EDGE_LOOP('',(#71,#80,#81,#82));
#71 = ORIENTED_EDGE('',*,*,#72,.F.);
#72 = EDGE_CURVE('',#22,#73,#75,.T.);
#73 = VERTEX_POINT('',#74);
#74 = CARTESIAN_POINT('',(7.7,0.,77.8));
#75 = B_SPLINE_CURVE_WITH_KNOTS('',3,(#76,#77,#78,#79),.UNSPECIFIED.,.F.
  ,.F.,(4,4),(0.,1.),.PIECEWISE_BEZIER_KNOTS.);
#76 = CARTESIAN_POINT('',(10.,0.,55.8));
#77 = CARTESIAN_POINT('',(10.,0.,61.8));
#78 = CARTESIAN_POINT('',(8.,0.,67.));
#79 = CARTESIAN_POINT('',(7.7,0.,77.8));
#80 = ORIENTED_EDGE('',*,*,#21,.T.);
#81 = ORIENTED_EDGE('',*,*,#72,.T.);
#82 = ORIENTED_EDGE('',*,*,#83,.F.);
#83 = EDGE_CURVE('',#73,#73,#84,.T.);
#84 = CIRCLE('',#85,7.7);
#85 = AXIS2_PLACEMENT_3D('',#86,#87,#88);
#86 = CARTESIAN_POINT('',(0.,0.,77.8));
#87 = DIRECTION('',(0.,0.,1.));
#88 = DIRECTION('',(1.,0.,0.));
#89 = FACE_BOUND('',#90,.T.);
#90 = EDGE_LOOP('',(#91,#107,#124,#138));
#91 = ORIENTED_EDGE('',*,*,#92,.T.);
#92 = EDGE_CURVE('',#93,#95,#97,.T.);
#93 = VERTEX_POINT('',#94);
#94 = CARTESIAN_POINT('',(-4.15,8.829604252755,59.65));
#95 = VERTEX_POINT('',#96);
#96 = CARTESIAN_POINT('',(4.15,8.829604252755,59.65));
#97 = B_SPLINE_CURVE_WITH_KNOTS('',8,(#98,#99,#100,#101,#102,#103,#104,
    #105,#106),.UNSPECIFIED.,.F.,.F.,(9,9),(0.,1.),
  .PIECEWISE_BEZIER_KNOTS.);
#98 = CARTESIAN_POINT('',(-4.15,8.829604252755,59.65));
#99 = CARTESIAN_POINT('',(-3.180499316807,9.285279016887,59.65));
#100 = CARTESIAN_POINT('',(-2.152839374696,9.619753220204,59.65));
#101 = CARTESIAN_POINT('',(-1.086184187312,9.823499874254,59.65));
#102 = CARTESIAN_POINT('',(-6.685318965083E-12,9.891973226079,59.65));
#103 = CARTESIAN_POINT('',(1.086184187322,9.823499874253,59.65));
#104 = CARTESIAN_POINT('',(2.152839374692,9.619753220205,59.65));
#105 = CARTESIAN_POINT('',(3.180499316808,9.285279016886,59.65));
#106 = CARTESIAN_POINT('',(4.15,8.829604252755,59.65));
#107 = ORIENTED_EDGE('',*,*,#108,.T.);
#108 = EDGE_CURVE('',#95,#109,#111,.T.);
#109 = VERTEX_POINT('',#110);
#110 = CARTESIAN_POINT('',(4.15,8.274776779821,63.15));
#111 = B_SPLINE_CURVE_WITH_KNOTS('',6,(#112,#113,#114,#115,#116,#117,
    #118,#119,#120,#121,#122,#123),.UNSPECIFIED.,.F.,.F.,(7,5,7),(0.,
    0.804500651396,1.),.UNSPECIFIED.);
#112 = CARTESIAN_POINT('',(4.15,8.829604252755,59.65));
#113 = CARTESIAN_POINT('',(4.15,8.769021533073,60.121277460934));
#114 = CARTESIAN_POINT('',(4.15,8.702189078753,60.591751842117));
#115 = CARTESIAN_POINT('',(4.15,8.630222312393,61.061484315655));
#116 = CARTESIAN_POINT('',(4.15,8.55425385952,61.530584145082));
#117 = CARTESIAN_POINT('',(4.15,8.47532641956,61.999191825663));
#118 = CARTESIAN_POINT('',(4.15,8.374689795565,62.581270960074));
#119 = CARTESIAN_POINT('',(4.15,8.354895319321,62.695047418101));
#120 = CARTESIAN_POINT('',(4.15,8.334994078744,62.808806411875));
#121 = CARTESIAN_POINT('',(4.15,8.314998980245,62.922550090662));
#122 = CARTESIAN_POINT('',(4.15,8.294922519175,63.036280583661));
#123 = CARTESIAN_POINT('',(4.15,8.274776779821,63.15));
#124 = ORIENTED_EDGE('',*,*,#125,.F.);
#125 = EDGE_CURVE('',#126,#109,#128,.T.);
#126 = VERTEX_POINT('',#127);
#127 = CARTESIAN_POINT('',(-4.15,8.274776779821,63.15));
#128 = B_SPLINE_CURVE_WITH_KNOTS('',8,(#129,#130,#131,#132,#133,#134,
    #135,#136,#137),.UNSPECIFIED.,.F.,.F.,(9,9),(0.,1.),
  .PIECEWISE_BEZIER_KNOTS.);
#129 = CARTESIAN_POINT('',(-4.15,8.274776779821,63.15));
#130 = CARTESIAN_POINT('',(-3.188781451572,8.756851049873,63.15));
#131 = CARTESIAN_POINT('',(-2.162350578251,9.11192456203,63.15));
#132 = CARTESIAN_POINT('',(-1.092139297906,9.328550823938,63.15));
#133 = CARTESIAN_POINT('',(1.870414934046E-11,9.401432824544,63.15));
#134 = CARTESIAN_POINT('',(1.092139297877,9.328550823942,63.15));
#135 = CARTESIAN_POINT('',(2.162350578264,9.111924562027,63.15));
#136 = CARTESIAN_POINT('',(3.188781451569,8.756851049875,63.15));
#137 = CARTESIAN_POINT('',(4.15,8.274776779821,63.15));
#138 = ORIENTED_EDGE('',*,*,#139,.F.);
#139 = EDGE_CURVE('',#93,#126,#140,.T.);
#140 = B_SPLINE_CURVE_WITH_KNOTS('',6,(#141,#142,#143,#144,#145,#146,
    #147,#148,#149,#150,#151,#152),.UNSPECIFIED.,.F.,.F.,(7,5,7),(0.,
    0.804500651401,1.),.UNSPECIFIED.);
#141 = CARTESIAN_POINT('',(-4.15,8.829604252755,59.65));
#142 = CARTESIAN_POINT('',(-4.15,8.769021533073,60.121277460937));
#143 = CARTESIAN_POINT('',(-4.15,8.702189078752,60.591751842123));
#144 = CARTESIAN_POINT('',(-4.15,8.630222312392,61.061484315665));
#145 = CARTESIAN_POINT('',(-4.15,8.554253859518,61.530584145094));
#146 = CARTESIAN_POINT('',(-4.15,8.475326419557,61.999191825679));
#147 = CARTESIAN_POINT('',(-4.15,8.374689795562,62.58127096009));
#148 = CARTESIAN_POINT('',(-4.15,8.354895319319,62.695047418114));
#149 = CARTESIAN_POINT('',(-4.15,8.334994078743,62.808806411885));
#150 = CARTESIAN_POINT('',(-4.15,8.314998980244,62.922550090669));
#151 = CARTESIAN_POINT('',(-4.15,8.294922519174,63.036280583664));
#152 = CARTESIAN_POINT('',(-4.15,8.274776779821,63.15));
#153 = SURFACE_OF_REVOLUTION('',#154,#159);
#154 = B_SPLINE_CURVE_WITH_KNOTS('',3,(#155,#156,#157,#158),
  .UNSPECIFIED.,.F.,.F.,(4,4),(0.,1.),.PIECEWISE_BEZIER_KNOTS.);
#155 = CARTESIAN_POINT('',(10.,0.,55.8));
#156 = CARTESIAN_POINT('',(10.,0.,61.8));
#157 = CARTESIAN_POINT('',(8.,0.,67.));
#158 = CARTESIAN_POINT('',(7.7,0.,77.8));
#159 = AXIS1_PLACEMENT('',#160,#161);
#160 = CARTESIAN_POINT('',(0.,0.,0.));
#161 = DIRECTION('',(0.,0.,1.));
#162 = ADVANCED_FACE('',(#163),#188,.F.);
#163 = FACE_BOUND('',#164,.F.);
#164 = EDGE_LOOP('',(#165,#173,#181,#187));
#165 = ORIENTED_EDGE('',*,*,#166,.F.);
#166 = EDGE_CURVE('',#167,#33,#169,.T.);
#167 = VERTEX_POINT('',#168);
#168 = CARTESIAN_POINT('',(-6.,-5.,53.8));
#169 = LINE('',#170,#171);
#170 = CARTESIAN_POINT('',(-6.,-5.,53.8));
#171 = VECTOR('',#172,1.);
#172 = DIRECTION('',(0.,0.,1.));
#173 = ORIENTED_EDGE('',*,*,#174,.T.);
#174 = EDGE_CURVE('',#167,#175,#177,.T.);
#175 = VERTEX_POINT('',#176);
#176 = CARTESIAN_POINT('',(-6.,5.,53.8));
#177 = LINE('',#178,#179);
#178 = CARTESIAN_POINT('',(-6.,-5.,53.8));
#179 = VECTOR('',#180,1.);
#180 = DIRECTION('',(0.,1.,0.));
#181 = ORIENTED_EDGE('',*,*,#182,.T.);
#182 = EDGE_CURVE('',#175,#35,#183,.T.);
#183 = LINE('',#184,#185);
#184 = CARTESIAN_POINT('',(-6.,5.,53.8));
#185 = VECTOR('',#186,1.);
#186 = DIRECTION('',(0.,0.,1.));
#187 = ORIENTED_EDGE('',*,*,#32,.F.);
#188 = PLANE('',#189);
#189 = AXIS2_PLACEMENT_3D('',#190,#191,#192);
#190 = CARTESIAN_POINT('',(-6.,-5.,53.8));
#191 = DIRECTION('',(1.,0.,0.));
#192 = DIRECTION('',(0.,0.,1.));
#193 = ADVANCED_FACE('',(#194),#212,.T.);
#194 = FACE_BOUND('',#195,.T.);
#195 = EDGE_LOOP('',(#196,#204,#205,#206));
#196 = ORIENTED_EDGE('',*,*,#197,.F.);
#197 = EDGE_CURVE('',#175,#198,#200,.T.);
#198 = VERTEX_POINT('',#199);
#199 = CARTESIAN_POINT('',(6.,5.,53.8));
#200 = LINE('',#201,#202);
#201 = CARTESIAN_POINT('',(-6.,5.,53.8));
#202 = VECTOR('',#203,1.);
#203 = DIRECTION('',(1.,0.,0.));
#204 = ORIENTED_EDGE('',*,*,#182,.T.);
#205 = ORIENTED_EDGE('',*,*,#58,.T.);
#206 = ORIENTED_EDGE('',*,*,#207,.F.);
#207 = EDGE_CURVE('',#198,#51,#208,.T.);
#208 = LINE('',#209,#210);
#209 = CARTESIAN_POINT('',(6.,5.,53.8));
#210 = VECTOR('',#211,1.);
#211 = DIRECTION('',(0.,0.,1.));
#212 = PLANE('',#213);
#213 = AXIS2_PLACEMENT_3D('',#214,#215,#216);
#214 = CARTESIAN_POINT('',(-6.,5.,53.8));
#215 = DIRECTION('',(0.,1.,0.));
#216 = DIRECTION('',(0.,0.,1.));
#217 = ADVANCED_FACE('',(#218),#236,.T.);
#218 = FACE_BOUND('',#219,.T.);
#219 = EDGE_LOOP('',(#220,#228,#234,#235));
#220 = ORIENTED_EDGE('',*,*,#221,.F.);
#221 = EDGE_CURVE('',#222,#43,#224,.T.);
#222 = VERTEX_POINT('',#223);
#223 = CARTESIAN_POINT('',(6.,-5.,53.8));
#224 = LINE('',#225,#226);
#225 = CARTESIAN_POINT('',(6.,-5.,53.8));
#226 = VECTOR('',#227,1.);
#227 = DIRECTION('',(0.,0.,1.));
#228 = ORIENTED_EDGE('',*,*,#229,.T.);
#229 = EDGE_CURVE('',#222,#198,#230,.T.);
#230 = LINE('',#231,#232);
#231 = CARTESIAN_POINT('',(6.,-5.,53.8));
#232 = VECTOR('',#233,1.);
#233 = DIRECTION('',(0.,1.,0.));
#234 = ORIENTED_EDGE('',*,*,#207,.T.);
#235 = ORIENTED_EDGE('',*,*,#50,.F.);
#236 = PLANE('',#237);
#237 = AXIS2_PLACEMENT_3D('',#238,#239,#240);
#238 = CARTESIAN_POINT('',(6.,-5.,53.8));
#239 = DIRECTION('',(1.,0.,0.));
#240 = DIRECTION('',(0.,0.,1.));
#241 = ADVANCED_FACE('',(#242),#253,.F.);
#242 = FACE_BOUND('',#243,.F.);
#243 = EDGE_LOOP('',(#244,#250,#251,#252));
#244 = ORIENTED_EDGE('',*,*,#245,.F.);
#245 = EDGE_CURVE('',#167,#222,#246,.T.);
#246 = LINE('',#247,#248);
#247 = CARTESIAN_POINT('',(-6.,-5.,53.8));
#248 = VECTOR('',#249,1.);
#249 = DIRECTION('',(1.,0.,0.));
#250 = ORIENTED_EDGE('',*,*,#166,.T.);
#251 = ORIENTED_EDGE('',*,*,#42,.T.);
#252 = ORIENTED_EDGE('',*,*,#221,.F.);
#253 = PLANE('',#254);
#254 = AXIS2_PLACEMENT_3D('',#255,#256,#257);
#255 = CARTESIAN_POINT('',(-6.,-5.,53.8));
#256 = DIRECTION('',(0.,1.,0.));
#257 = DIRECTION('',(0.,0.,1.));
#258 = ADVANCED_FACE('',(#259),#279,.T.);
#259 = FACE_BOUND('',#260,.T.);
#260 = EDGE_LOOP('',(#261,#262,#271,#278));
#261 = ORIENTED_EDGE('',*,*,#83,.T.);
#262 = ORIENTED_EDGE('',*,*,#263,.T.);
#263 = EDGE_CURVE('',#73,#264,#266,.T.);
#264 = VERTEX_POINT('',#265);
#265 = CARTESIAN_POINT('',(10.5,0.,117.8));
#266 = B_SPLINE_CURVE_WITH_KNOTS('',3,(#267,#268,#269,#270),
  .UNSPECIFIED.,.F.,.F.,(4,4),(0.,1.),.PIECEWISE_BEZIER_KNOTS.);
#267 = CARTESIAN_POINT('',(7.7,0.,77.8));
#268 = CARTESIAN_POINT('',(7.2,0.,95.));
#269 = CARTESIAN_POINT('',(8.2,0.,107.));
#270 = CARTESIAN_POINT('',(10.5,0.,117.8));
#271 = ORIENTED_EDGE('',*,*,#272,.F.);
#272 = EDGE_CURVE('',#264,#264,#273,.T.);
#273 = CIRCLE('',#274,10.5);
#274 = AXIS2_PLACEMENT_3D('',#275,#276,#277);
#275 = CARTESIAN_POINT('',(0.,0.,117.8));
#276 = DIRECTION('',(0.,0.,1.));
#277 = DIRECTION('',(1.,0.,0.));
#278 = ORIENTED_EDGE('',*,*,#263,.F.);
#279 = SURFACE_OF_REVOLUTION('',#280,#285);
#280 = B_SPLINE_CURVE_WITH_KNOTS('',3,(#281,#282,#283,#284),
  .UNSPECIFIED.,.F.,.F.,(4,4),(0.,1.),.PIECEWISE_BEZIER_KNOTS.);
#281 = CARTESIAN_POINT('',(7.7,0.,77.8));
#282 = CARTESIAN_POINT('',(7.2,0.,95.));
#283 = CARTESIAN_POINT('',(8.2,0.,107.));
#284 = CARTESIAN_POINT('',(10.5,0.,117.8));
#285 = AXIS1_PLACEMENT('',#286,#287);
#286 = CARTESIAN_POINT('',(0.,0.,0.));
#287 = DIRECTION('',(0.,0.,1.));
#288 = ADVANCED_FACE('',(#289),#314,.T.);
#289 = FACE_BOUND('',#290,.T.);
#290 = EDGE_LOOP('',(#291,#301,#307,#308));
#291 = ORIENTED_EDGE('',*,*,#292,.F.);
#292 = EDGE_CURVE('',#293,#295,#297,.T.);
#293 = VERTEX_POINT('',#294);
#294 = CARTESIAN_POINT('',(-4.15,0.111989148589,59.65));
#295 = VERTEX_POINT('',#296);
#296 = CARTESIAN_POINT('',(-4.15,0.111989148589,63.15));
#297 = LINE('',#298,#299);
#298 = CARTESIAN_POINT('',(-4.15,0.111989148589,59.65));
#299 = VECTOR('',#300,1.);
#300 = DIRECTION('',(0.,0.,1.));
#301 = ORIENTED_EDGE('',*,*,#302,.T.);
#302 = EDGE_CURVE('',#293,#93,#303,.T.);
#303 = LINE('',#304,#305);
#304 = CARTESIAN_POINT('',(-4.15,0.,59.65));
#305 = VECTOR('',#306,1.);
#306 = DIRECTION('',(0.,1.,0.));
#307 = ORIENTED_EDGE('',*,*,#139,.T.);
#308 = ORIENTED_EDGE('',*,*,#309,.F.);
#309 = EDGE_CURVE('',#295,#126,#310,.T.);
#310 = LINE('',#311,#312);
#311 = CARTESIAN_POINT('',(-4.15,0.,63.15));
#312 = VECTOR('',#313,1.);
#313 = DIRECTION('',(0.,1.,0.));
#314 = PLANE('',#315);
#315 = AXIS2_PLACEMENT_3D('',#316,#317,#318);
#316 = CARTESIAN_POINT('',(-4.15,0.,59.65));
#317 = DIRECTION('',(1.,0.,0.));
#318 = DIRECTION('',(0.,0.,1.));
#319 = ADVANCED_FACE('',(#320),#345,.F.);
#320 = FACE_BOUND('',#321,.F.);
#321 = EDGE_LOOP('',(#322,#332,#338,#339));
#322 = ORIENTED_EDGE('',*,*,#323,.F.);
#323 = EDGE_CURVE('',#324,#326,#328,.T.);
#324 = VERTEX_POINT('',#325);
#325 = CARTESIAN_POINT('',(4.15,0.111989148589,59.65));
#326 = VERTEX_POINT('',#327);
#327 = CARTESIAN_POINT('',(4.15,0.111989148589,63.15));
#328 = LINE('',#329,#330);
#329 = CARTESIAN_POINT('',(4.15,0.111989148589,59.65));
#330 = VECTOR('',#331,1.);
#331 = DIRECTION('',(0.,0.,1.));
#332 = ORIENTED_EDGE('',*,*,#333,.T.);
#333 = EDGE_CURVE('',#324,#95,#334,.T.);
#334 = LINE('',#335,#336);
#335 = CARTESIAN_POINT('',(4.15,0.,59.65));
#336 = VECTOR('',#337,1.);
#337 = DIRECTION('',(0.,1.,0.));
#338 = ORIENTED_EDGE('',*,*,#108,.T.);
#339 = ORIENTED_EDGE('',*,*,#340,.F.);
#340 = EDGE_CURVE('',#326,#109,#341,.T.);
#341 = LINE('',#342,#343);
#342 = CARTESIAN_POINT('',(4.15,0.,63.15));
#343 = VECTOR('',#344,1.);
#344 = DIRECTION('',(0.,1.,0.));
#345 = PLANE('',#346);
#346 = AXIS2_PLACEMENT_3D('',#347,#348,#349);
#347 = CARTESIAN_POINT('',(4.15,0.,59.65));
#348 = DIRECTION('',(1.,0.,0.));
#349 = DIRECTION('',(0.,0.,1.));
#350 = ADVANCED_FACE('',(#351,#357),#368,.F.);
#351 = FACE_BOUND('',#352,.F.);
#352 = EDGE_LOOP('',(#353,#354,#355,#356));
#353 = ORIENTED_EDGE('',*,*,#174,.F.);
#354 = ORIENTED_EDGE('',*,*,#245,.T.);
#355 = ORIENTED_EDGE('',*,*,#229,.T.);
#356 = ORIENTED_EDGE('',*,*,#197,.F.);
#357 = FACE_BOUND('',#358,.F.);
#358 = EDGE_LOOP('',(#359));
#359 = ORIENTED_EDGE('',*,*,#360,.F.);
#360 = EDGE_CURVE('',#361,#361,#363,.T.);
#361 = VERTEX_POINT('',#362);
#362 = CARTESIAN_POINT('',(2.15,-5.265981236334E-16,53.8));
#363 = CIRCLE('',#364,2.15);
#364 = AXIS2_PLACEMENT_3D('',#365,#366,#367);
#365 = CARTESIAN_POINT('',(0.,0.,53.8));
#366 = DIRECTION('',(0.,0.,1.));
#367 = DIRECTION('',(1.,0.,0.));
#368 = PLANE('',#369);
#369 = AXIS2_PLACEMENT_3D('',#370,#371,#372);
#370 = CARTESIAN_POINT('',(-6.,-5.,53.8));
#371 = DIRECTION('',(0.,0.,1.));
#372 = DIRECTION('',(1.,0.,0.));
#373 = ADVANCED_FACE('',(#374),#387,.T.);
#374 = FACE_BOUND('',#375,.T.);
#375 = EDGE_LOOP('',(#376,#377,#386));
#376 = ORIENTED_EDGE('',*,*,#272,.T.);
#377 = ORIENTED_EDGE('',*,*,#378,.T.);
#378 = EDGE_CURVE('',#264,#379,#381,.T.);
#379 = VERTEX_POINT('',#380);
#380 = CARTESIAN_POINT('',(0.,0.,135.8));
#381 = B_SPLINE_CURVE_WITH_KNOTS('',3,(#382,#383,#384,#385),
  .UNSPECIFIED.,.F.,.F.,(4,4),(0.,1.),.PIECEWISE_BEZIER_KNOTS.);
#382 = CARTESIAN_POINT('',(10.5,0.,117.8));
#383 = CARTESIAN_POINT('',(12.7,0.,128.));
#384 = CARTESIAN_POINT('',(11.5,0.,135.8));
#385 = CARTESIAN_POINT('',(0.,0.,135.8));
#386 = ORIENTED_EDGE('',*,*,#378,.F.);
#387 = SURFACE_OF_REVOLUTION('',#388,#393);
#388 = B_SPLINE_CURVE_WITH_KNOTS('',3,(#389,#390,#391,#392),
  .UNSPECIFIED.,.F.,.F.,(4,4),(0.,1.),.PIECEWISE_BEZIER_KNOTS.);
#389 = CARTESIAN_POINT('',(10.5,0.,117.8));
#390 = CARTESIAN_POINT('',(12.7,0.,128.));
#391 = CARTESIAN_POINT('',(11.5,0.,135.8));
#392 = CARTESIAN_POINT('',(0.,0.,135.8));
#393 = AXIS1_PLACEMENT('',#394,#395);
#394 = CARTESIAN_POINT('',(0.,0.,0.));
#395 = DIRECTION('',(0.,0.,1.));
#396 = ADVANCED_FACE('',(#397),#422,.T.);
#397 = FACE_BOUND('',#398,.T.);
#398 = EDGE_LOOP('',(#399,#407,#408,#416));
#399 = ORIENTED_EDGE('',*,*,#400,.F.);
#400 = EDGE_CURVE('',#293,#401,#403,.T.);
#401 = VERTEX_POINT('',#402);
#402 = CARTESIAN_POINT('',(-4.214656965084,5.161466161795E-16,59.65));
#403 = LINE('',#404,#405);
#404 = CARTESIAN_POINT('',(-2.107328482542,3.65,59.65));
#405 = VECTOR('',#406,1.);
#406 = DIRECTION('',(-0.5,-0.866025403784,0.));
#407 = ORIENTED_EDGE('',*,*,#292,.T.);
#408 = ORIENTED_EDGE('',*,*,#409,.T.);
#409 = EDGE_CURVE('',#295,#410,#412,.T.);
#410 = VERTEX_POINT('',#411);
#411 = CARTESIAN_POINT('',(-4.214656965084,5.161466161795E-16,63.15));
#412 = LINE('',#413,#414);
#413 = CARTESIAN_POINT('',(-2.107328482542,3.65,63.15));
#414 = VECTOR('',#415,1.);
#415 = DIRECTION('',(-0.5,-0.866025403784,0.));
#416 = ORIENTED_EDGE('',*,*,#417,.F.);
#417 = EDGE_CURVE('',#401,#410,#418,.T.);
#418 = LINE('',#419,#420);
#419 = CARTESIAN_POINT('',(-4.214656965084,5.161466161795E-16,59.65));
#420 = VECTOR('',#421,1.);
#421 = DIRECTION('',(0.,0.,1.));
#422 = PLANE('',#423);
#423 = AXIS2_PLACEMENT_3D('',#424,#425,#426);
#424 = CARTESIAN_POINT('',(-2.107328482542,3.65,59.65));
#425 = DIRECTION('',(0.866025403784,-0.5,0.));
#426 = DIRECTION('',(-0.5,-0.866025403784,0.));
#427 = ADVANCED_FACE('',(#428),#453,.T.);
#428 = FACE_BOUND('',#429,.T.);
#429 = EDGE_LOOP('',(#430,#438,#446,#452));
#430 = ORIENTED_EDGE('',*,*,#431,.F.);
#431 = EDGE_CURVE('',#432,#324,#434,.T.);
#432 = VERTEX_POINT('',#433);
#433 = CARTESIAN_POINT('',(4.214656965084,0.,59.65));
#434 = LINE('',#435,#436);
#435 = CARTESIAN_POINT('',(4.214656965084,0.,59.65));
#436 = VECTOR('',#437,1.);
#437 = DIRECTION('',(-0.5,0.866025403784,0.));
#438 = ORIENTED_EDGE('',*,*,#439,.T.);
#439 = EDGE_CURVE('',#432,#440,#442,.T.);
#440 = VERTEX_POINT('',#441);
#441 = CARTESIAN_POINT('',(4.214656965084,0.,63.15));
#442 = LINE('',#443,#444);
#443 = CARTESIAN_POINT('',(4.214656965084,0.,59.65));
#444 = VECTOR('',#445,1.);
#445 = DIRECTION('',(0.,0.,1.));
#446 = ORIENTED_EDGE('',*,*,#447,.T.);
#447 = EDGE_CURVE('',#440,#326,#448,.T.);
#448 = LINE('',#449,#450);
#449 = CARTESIAN_POINT('',(4.214656965084,0.,63.15));
#450 = VECTOR('',#451,1.);
#451 = DIRECTION('',(-0.5,0.866025403784,0.));
#452 = ORIENTED_EDGE('',*,*,#323,.F.);
#453 = PLANE('',#454);
#454 = AXIS2_PLACEMENT_3D('',#455,#456,#457);
#455 = CARTESIAN_POINT('',(4.214656965084,0.,59.65));
#456 = DIRECTION('',(-0.866025403784,-0.5,0.));
#457 = DIRECTION('',(-0.5,0.866025403784,0.));
#458 = ADVANCED_FACE('',(#459),#487,.F.);
#459 = FACE_BOUND('',#460,.F.);
#460 = EDGE_LOOP('',(#461,#462,#470,#479,#486));
#461 = ORIENTED_EDGE('',*,*,#360,.T.);
#462 = ORIENTED_EDGE('',*,*,#463,.T.);
#463 = EDGE_CURVE('',#361,#464,#466,.T.);
#464 = VERTEX_POINT('',#465);
#465 = CARTESIAN_POINT('',(2.15,-2.632990618167E-16,59.65));
#466 = LINE('',#467,#468);
#467 = CARTESIAN_POINT('',(2.15,-5.265981236334E-16,53.7));
#468 = VECTOR('',#469,1.);
#469 = DIRECTION('',(0.,0.,1.));
#470 = ORIENTED_EDGE('',*,*,#471,.F.);
#471 = EDGE_CURVE('',#472,#464,#474,.T.);
#472 = VERTEX_POINT('',#473);
#473 = CARTESIAN_POINT('',(-2.15,0.,59.65));
#474 = CIRCLE('',#475,2.15);
#475 = AXIS2_PLACEMENT_3D('',#476,#477,#478);
#476 = CARTESIAN_POINT('',(0.,0.,59.65));
#477 = DIRECTION('',(0.,0.,1.));
#478 = DIRECTION('',(1.,0.,0.));
#479 = ORIENTED_EDGE('',*,*,#480,.F.);
#480 = EDGE_CURVE('',#464,#472,#481,.T.);
#481 = CIRCLE('',#482,2.15);
#482 = AXIS2_PLACEMENT_3D('',#483,#484,#485);
#483 = CARTESIAN_POINT('',(0.,0.,59.65));
#484 = DIRECTION('',(0.,0.,1.));
#485 = DIRECTION('',(1.,0.,0.));
#486 = ORIENTED_EDGE('',*,*,#463,.F.);
#487 = CYLINDRICAL_SURFACE('',#488,2.15);
#488 = AXIS2_PLACEMENT_3D('',#489,#490,#491);
#489 = CARTESIAN_POINT('',(0.,0.,53.7));
#490 = DIRECTION('',(0.,0.,1.));
#491 = DIRECTION('',(1.,0.,0.));
#492 = ADVANCED_FACE('',(#493),#518,.T.);
#493 = FACE_BOUND('',#494,.T.);
#494 = EDGE_LOOP('',(#495,#496,#504,#512));
#495 = ORIENTED_EDGE('',*,*,#417,.T.);
#496 = ORIENTED_EDGE('',*,*,#497,.T.);
#497 = EDGE_CURVE('',#410,#498,#500,.T.);
#498 = VERTEX_POINT('',#499);
#499 = CARTESIAN_POINT('',(-2.107328482542,-3.65,63.15));
#500 = LINE('',#501,#502);
#501 = CARTESIAN_POINT('',(-4.214656965084,5.161466161795E-16,63.15));
#502 = VECTOR('',#503,1.);
#503 = DIRECTION('',(0.5,-0.866025403784,0.));
#504 = ORIENTED_EDGE('',*,*,#505,.F.);
#505 = EDGE_CURVE('',#506,#498,#508,.T.);
#506 = VERTEX_POINT('',#507);
#507 = CARTESIAN_POINT('',(-2.107328482542,-3.65,59.65));
#508 = LINE('',#509,#510);
#509 = CARTESIAN_POINT('',(-2.107328482542,-3.65,59.65));
#510 = VECTOR('',#511,1.);
#511 = DIRECTION('',(0.,0.,1.));
#512 = ORIENTED_EDGE('',*,*,#513,.F.);
#513 = EDGE_CURVE('',#401,#506,#514,.T.);
#514 = LINE('',#515,#516);
#515 = CARTESIAN_POINT('',(-4.214656965084,5.161466161795E-16,59.65));
#516 = VECTOR('',#517,1.);
#517 = DIRECTION('',(0.5,-0.866025403784,0.));
#518 = PLANE('',#519);
#519 = AXIS2_PLACEMENT_3D('',#520,#521,#522);
#520 = CARTESIAN_POINT('',(-4.214656965084,5.161466161795E-16,59.65));
#521 = DIRECTION('',(0.866025403784,0.5,0.));
#522 = DIRECTION('',(0.5,-0.866025403784,0.));
#523 = ADVANCED_FACE('',(#524),#549,.T.);
#524 = FACE_BOUND('',#525,.T.);
#525 = EDGE_LOOP('',(#526,#536,#542,#543));
#526 = ORIENTED_EDGE('',*,*,#527,.T.);
#527 = EDGE_CURVE('',#528,#530,#532,.T.);
#528 = VERTEX_POINT('',#529);
#529 = CARTESIAN_POINT('',(2.107328482542,-3.65,59.65));
#530 = VERTEX_POINT('',#531);
#531 = CARTESIAN_POINT('',(2.107328482542,-3.65,63.15));
#532 = LINE('',#533,#534);
#533 = CARTESIAN_POINT('',(2.107328482542,-3.65,59.65));
#534 = VECTOR('',#535,1.);
#535 = DIRECTION('',(0.,0.,1.));
#536 = ORIENTED_EDGE('',*,*,#537,.T.);
#537 = EDGE_CURVE('',#530,#440,#538,.T.);
#538 = LINE('',#539,#540);
#539 = CARTESIAN_POINT('',(2.107328482542,-3.65,63.15));
#540 = VECTOR('',#541,1.);
#541 = DIRECTION('',(0.5,0.866025403784,0.));
#542 = ORIENTED_EDGE('',*,*,#439,.F.);
#543 = ORIENTED_EDGE('',*,*,#544,.F.);
#544 = EDGE_CURVE('',#528,#432,#545,.T.);
#545 = LINE('',#546,#547);
#546 = CARTESIAN_POINT('',(2.107328482542,-3.65,59.65));
#547 = VECTOR('',#548,1.);
#548 = DIRECTION('',(0.5,0.866025403784,0.));
#549 = PLANE('',#550);
#550 = AXIS2_PLACEMENT_3D('',#551,#552,#553);
#551 = CARTESIAN_POINT('',(2.107328482542,-3.65,59.65));
#552 = DIRECTION('',(-0.866025403784,0.5,0.));
#553 = DIRECTION('',(0.5,0.866025403784,0.));
#554 = ADVANCED_FACE('',(#555),#571,.T.);
#555 = FACE_BOUND('',#556,.T.);
#556 = EDGE_LOOP('',(#557,#558,#564,#565));
#557 = ORIENTED_EDGE('',*,*,#505,.T.);
#558 = ORIENTED_EDGE('',*,*,#559,.T.);
#559 = EDGE_CURVE('',#498,#530,#560,.T.);
#560 = LINE('',#561,#562);
#561 = CARTESIAN_POINT('',(-2.107328482542,-3.65,63.15));
#562 = VECTOR('',#563,1.);
#563 = DIRECTION('',(1.,-1.05367818432E-16,0.));
#564 = ORIENTED_EDGE('',*,*,#527,.F.);
#565 = ORIENTED_EDGE('',*,*,#566,.F.);
#566 = EDGE_CURVE('',#506,#528,#567,.T.);
#567 = LINE('',#568,#569);
#568 = CARTESIAN_POINT('',(-2.107328482542,-3.65,59.65));
#569 = VECTOR('',#570,1.);
#570 = DIRECTION('',(1.,-1.05367818432E-16,0.));
#571 = PLANE('',#572);
#572 = AXIS2_PLACEMENT_3D('',#573,#574,#575);
#573 = CARTESIAN_POINT('',(-2.107328482542,-3.65,59.65));
#574 = DIRECTION('',(1.05367818432E-16,1.,0.));
#575 = DIRECTION('',(1.,-1.05367818432E-16,0.));
#576 = ADVANCED_FACE('',(#577,#587),#591,.T.);
#577 = FACE_BOUND('',#578,.T.);
#578 = EDGE_LOOP('',(#579,#580,#581,#582,#583,#584,#585,#586));
#579 = ORIENTED_EDGE('',*,*,#302,.F.);
#580 = ORIENTED_EDGE('',*,*,#400,.T.);
#581 = ORIENTED_EDGE('',*,*,#513,.T.);
#582 = ORIENTED_EDGE('',*,*,#566,.T.);
#583 = ORIENTED_EDGE('',*,*,#544,.T.);
#584 = ORIENTED_EDGE('',*,*,#431,.T.);
#585 = ORIENTED_EDGE('',*,*,#333,.T.);
#586 = ORIENTED_EDGE('',*,*,#92,.F.);
#587 = FACE_BOUND('',#588,.T.);
#588 = EDGE_LOOP('',(#589,#590));
#589 = ORIENTED_EDGE('',*,*,#480,.F.);
#590 = ORIENTED_EDGE('',*,*,#471,.F.);
#591 = PLANE('',#592);
#592 = AXIS2_PLACEMENT_3D('',#593,#594,#595);
#593 = CARTESIAN_POINT('',(-2.967694023827E-16,3.291248516716,59.65));
#594 = DIRECTION('',(0.,0.,1.));
#595 = DIRECTION('',(1.,0.,0.));
#596 = ADVANCED_FACE('',(#597,#607),#627,.T.);
#597 = FACE_BOUND('',#598,.T.);
#598 = EDGE_LOOP('',(#599,#600,#601,#602,#603,#604,#605,#606));
#599 = ORIENTED_EDGE('',*,*,#309,.T.);
#600 = ORIENTED_EDGE('',*,*,#125,.T.);
#601 = ORIENTED_EDGE('',*,*,#340,.F.);
#602 = ORIENTED_EDGE('',*,*,#447,.F.);
#603 = ORIENTED_EDGE('',*,*,#537,.F.);
#604 = ORIENTED_EDGE('',*,*,#559,.F.);
#605 = ORIENTED_EDGE('',*,*,#497,.F.);
#606 = ORIENTED_EDGE('',*,*,#409,.F.);
#607 = FACE_BOUND('',#608,.T.);
#608 = EDGE_LOOP('',(#609,#620));
#609 = ORIENTED_EDGE('',*,*,#610,.T.);
#610 = EDGE_CURVE('',#611,#613,#615,.T.);
#611 = VERTEX_POINT('',#612);
#612 = CARTESIAN_POINT('',(2.15,-2.632990618167E-16,63.15));
#613 = VERTEX_POINT('',#614);
#614 = CARTESIAN_POINT('',(-2.15,0.,63.15));
#615 = CIRCLE('',#616,2.15);
#616 = AXIS2_PLACEMENT_3D('',#617,#618,#619);
#617 = CARTESIAN_POINT('',(0.,0.,63.15));
#618 = DIRECTION('',(0.,0.,1.));
#619 = DIRECTION('',(1.,0.,0.));
#620 = ORIENTED_EDGE('',*,*,#621,.T.);
#621 = EDGE_CURVE('',#613,#611,#622,.T.);
#622 = CIRCLE('',#623,2.15);
#623 = AXIS2_PLACEMENT_3D('',#624,#625,#626);
#624 = CARTESIAN_POINT('',(0.,0.,63.15));
#625 = DIRECTION('',(0.,0.,1.));
#626 = DIRECTION('',(1.,0.,0.));
#627 = PLANE('',#628);
#628 = AXIS2_PLACEMENT_3D('',#629,#630,#631);
#629 = CARTESIAN_POINT('',(8.320073236684E-16,3.024356680907,63.15));
#630 = DIRECTION('',(-0.,-0.,-1.));
#631 = DIRECTION('',(-1.,0.,0.));
#632 = ADVANCED_FACE('',(#633),#653,.F.);
#633 = FACE_BOUND('',#634,.F.);
#634 = EDGE_LOOP('',(#635,#636,#644,#651,#652));
#635 = ORIENTED_EDGE('',*,*,#621,.T.);
#636 = ORIENTED_EDGE('',*,*,#637,.T.);
#637 = EDGE_CURVE('',#611,#638,#640,.T.);
#638 = VERTEX_POINT('',#639);
#639 = CARTESIAN_POINT('',(2.15,-5.265981236334E-16,68.));
#640 = LINE('',#641,#642);
#641 = CARTESIAN_POINT('',(2.15,-5.265981236334E-16,53.7));
#642 = VECTOR('',#643,1.);
#643 = DIRECTION('',(0.,0.,1.));
#644 = ORIENTED_EDGE('',*,*,#645,.F.);
#645 = EDGE_CURVE('',#638,#638,#646,.T.);
#646 = CIRCLE('',#647,2.15);
#647 = AXIS2_PLACEMENT_3D('',#648,#649,#650);
#648 = CARTESIAN_POINT('',(0.,0.,68.));
#649 = DIRECTION('',(0.,0.,1.));
#650 = DIRECTION('',(1.,0.,0.));
#651 = ORIENTED_EDGE('',*,*,#637,.F.);
#652 = ORIENTED_EDGE('',*,*,#610,.T.);
#653 = CYLINDRICAL_SURFACE('',#654,2.15);
#654 = AXIS2_PLACEMENT_3D('',#655,#656,#657);
#655 = CARTESIAN_POINT('',(0.,0.,53.7));
#656 = DIRECTION('',(0.,0.,1.));
#657 = DIRECTION('',(1.,0.,0.));
#658 = ADVANCED_FACE('',(#659),#662,.F.);
#659 = FACE_BOUND('',#660,.F.);
#660 = EDGE_LOOP('',(#661));
#661 = ORIENTED_EDGE('',*,*,#645,.T.);
#662 = PLANE('',#663);
#663 = AXIS2_PLACEMENT_3D('',#664,#665,#666);
#664 = CARTESIAN_POINT('',(0.,0.,68.));
#665 = DIRECTION('',(0.,0.,1.));
#666 = DIRECTION('',(1.,0.,0.));
#667 = ( GEOMETRIC_REPRESENTATION_CONTEXT(3) 
GLOBAL_UNCERTAINTY_ASSIGNED_CONTEXT((#671)) GLOBAL_UNIT_ASSIGNED_CONTEXT
((#668,#669,#670)) REPRESENTATION_CONTEXT('Context #1',
  '3D Context with UNIT and UNCERTAINTY') );
#668 = ( LENGTH_UNIT() NAMED_UNIT(*) SI_UNIT(.MILLI.,.METRE.) );
#669 = ( NAMED_UNIT(*) PLANE_ANGLE_UNIT() SI_UNIT($,.RADIAN.) );
#670 = ( NAMED_UNIT(*) SI_UNIT($,.STERADIAN.) SOLID_ANGLE_UNIT() );
#671 = UNCERTAINTY_MEASURE_WITH_UNIT(LENGTH_MEASURE(2.E-06),#668,
  'distance_accuracy_value','confusion accuracy');
#672 = PRODUCT_RELATED_PRODUCT_CATEGORY('part',$,(#7));
ENDSEC;
END-ISO-10303-21;
